<?xml version="1.0" encoding="UTF-8"?>
<svg width="100px" height="100px" viewBox="0 0 3 3" version="1.1" xmlns="http://www.w3.org/2000/svg" xmlns:xlink="http://www.w3.org/1999/xlink">
	<path d="M 2.2000013867914543 0.3092552083120046 L 0.8222693358628549 0.3041245558372059 C 0.7118871012538603 0.3037134941327266 0.6219369926707942 0.39299614274876304 0.6215259309663149 0.5033783773577576 L 0.6215259309663149 0.5033783773577576 L 0.6140781250213272 2.503334720124787 C 0.613667063316848 2.6137169547337815 0.7029497119328844 2.703667063316847 0.8133319465418789 2.7040781250213266 L 0.8133319465418789 2.7040781250213266 L 2.191063997470477 2.7092087774961255 C 2.3014462320794715 2.709619839200605 2.391396340662538 2.620337190584568 2.391807402367017 2.5099549559755734 L 2.391807402367017 2.5099549559755734 L 2.3921052968552243 2.429961468555841 C 2.3925163585597033 2.3195792339468464 2.303233709943667 2.2296291253637803 2.1928514753346726 2.229218063659301 L 2.1928514753346726 2.229218063659301 L 1.2951101382428982 2.225874889048698 C 1.1847279036339038 2.2254638273442184 1.0954452550178675 2.1355137187611524 1.0958563167223467 2.025131484152158 L 1.0958563167223467 2.025131484152158 L 1.099729166938944 0.9851565690587769 C 1.1001402286434232 0.8747743344497824 1.1900903372264893 0.7854916858337461 1.3004725718354837 0.7859027475382253 L 1.3004725718354837 0.7859027475382253 L 2.1982139089272588 0.7892459221488288 C 2.308596143536253 0.7896569838533081 2.3985462521193197 0.7003743352372717 2.3989573138237987 0.589992100628277 L 2.3989573138237987 0.589992100628277 L 2.399255208312006 0.5099986132085443 C 2.399666270016485 0.39961637859954985 2.3103836214004487 0.3096662700164839 2.2000013867914543 0.3092552083120046 Z" fill="gray"></path>
</svg>