<?xml version="1.0" encoding="UTF-8"?>
<svg width="100px" height="100px" viewBox="0 -3 3 3" version="1.1" xmlns="http://www.w3.org/2000/svg" xmlns:xlink="http://www.w3.org/1999/xlink">
        <g id="lshape" transform="translate(0, 0) scale(1, -1) " fill="#808080" fill-rule="nonzero">
            <path d="M 2.170834865303812 0.35042309049622533 L 0.8533311506168212 0.34426772181846976 C 0.7429493552908057 0.3437520187976964 0.6529146478689729 0.43294935529080564 0.6523989448481995 0.5433311506168211 L 0.6523989448481995 0.5433311506168211 L 0.6434350392311711 2.4619780370684867 C 0.6429193362103977 2.5723598323945023 0.732116672703507 2.662394539816335 0.8424984680295226 2.6629102428371083 L 0.8424984680295226 2.6629102428371083 L 0.9062313376662772 2.6632080023842977 C 1.0166131329922925 2.663723705405071 1.1066478404141253 2.574526368911962 1.1071635434348988 2.4641445735859464 L 1.1071635434348988 2.4641445735859464 L 1.1139609125344676 1.0092261913380085 C 1.114476615555241 0.8988443960119931 1.2045113229770739 0.8096470595188838 1.3148931183030892 0.8101627625396571 L 1.3148931183030892 0.8101627625396571 L 2.168668328786352 0.8141515946999531 C 2.2790501241123677 0.8146672977207264 2.3690848315342006 0.7254699612276171 2.3696005345549738 0.6150881659016016 L 2.3696005345549738 0.6150881659016016 L 2.369898294102163 0.551355296264847 C 2.3704139971229363 0.44097350093883153 2.2812166606298274 0.3509387935169987 2.170834865303812 0.35042309049622533 Z"></path>
        </g>
</svg>