<?xml version="1.0" encoding="UTF-8"?>
<svg width="100px" height="100px" viewBox="0 0 3 3" version="1.1" xmlns="http://www.w3.org/2000/svg" xmlns:xlink="http://www.w3.org/1999/xlink">
	<path d="M 2.7200000000000006 0.5739999999999991 L 2.7200000000000006 0.489999999999999 C 2.7200000000000006 0.3796169999999989 2.6303830000000006 0.2899999999999989 2.5200000000000005 0.2899999999999989 L 2.5200000000000005 0.2899999999999989 L 0.5000000000000003 0.2899999999999989 C 0.3896170000000003 0.2899999999999989 0.30000000000000027 0.379616999999999 0.30000000000000027 0.489999999999999 L 0.30000000000000027 0.489999999999999 L 0.3000000000000003 0.573999999999999 C 0.3000000000000003 0.684382999999999 0.3896170000000004 0.773999999999999 0.5000000000000004 0.773999999999999 L 0.5000000000000004 0.773999999999999 L 1.0680000000000003 0.7739999999999989 C 1.1783830000000004 0.7739999999999989 1.2680000000000005 0.863616999999999 1.2680000000000005 0.9739999999999991 L 1.2680000000000005 0.9739999999999991 L 1.268 2.510000000000002 C 1.268 2.6203830000000017 1.3576169999999999 2.710000000000002 1.4679999999999997 2.710000000000002 L 1.4679999999999997 2.710000000000002 L 1.5519999999999996 2.710000000000002 C 1.6623829999999997 2.710000000000002 1.752 2.6203830000000026 1.752 2.5100000000000025 L 1.752 2.5100000000000025 L 1.7520000000000004 0.9739999999999991 C 1.7520000000000004 0.8636169999999991 1.8416170000000005 0.7739999999999991 1.9520000000000004 0.7739999999999991 L 1.9520000000000004 0.7739999999999991 L 2.5200000000000005 0.773999999999999 C 2.6303830000000006 0.773999999999999 2.7200000000000006 0.6843829999999991 2.7200000000000006 0.5739999999999991 Z" fill="gray"></path>
</svg>