<svg width="24" height="24" viewBox="0 0 24 24" fill="none" xmlns="http://www.w3.org/2000/svg">
<path fill-rule="evenodd" clip-rule="evenodd" d="M12.0004 17.9291C11.6737 17.9758 11.3397 18 11 18C7.13401 18 4 14.866 4 11C4 7.13401 7.13401 4 11 4C14.866 4 18 7.13401 18 11C18 11.3397 17.9758 11.6737 17.9291 12.0004C17.9527 12.0001 17.9763 12 18 12C18.6661 12 19.3068 12.1085 19.9055 12.3089C19.9678 11.8816 20 11.4446 20 11C20 6.02944 15.9706 2 11 2C6.02944 2 2 6.02944 2 11C2 15.9706 6.02944 20 11 20C11.4446 20 11.8816 19.9678 12.3089 19.9055C12.1085 19.3068 12 18.6661 12 18C12 17.9763 12.0001 17.9527 12.0004 17.9291Z" fill="black"/>
<path d="M17 19.275V22.275H19.275V19.275H22.275V17H19.275V14H17V17H14V19.275H17Z" fill="black"/>
</svg>
