<svg width="24" height="24" viewBox="0 0 24 24" xmlns="http://www.w3.org/2000/svg">
<path d="M12 12H5C5 14.3333 6.4 19 12 19V12Z"/>
<path fill-rule="evenodd" clip-rule="evenodd" d="M22 12C22 6.5 17.5 2 12 2C10.1754 2 8.4609 2.49524 6.98421 3.35792L8.45294 4.82666C7.74746 5.17599 7.10097 5.62631 6.53234 6.15875L5.12673 4.75314C3.20363 6.57851 2 9.15552 2 12C2 17.5 6.5 22 12 22C17.5 22 22 17.5 22 12ZM4 12C4 7.58 7.58 4 12 4C16.42 4 20 7.58 20 12C20 13.274 19.7026 14.4782 19.1733 15.547L20.642 17.0158C20.2492 17.6883 19.7801 18.3115 19.2468 18.8732L17.8412 17.4676C16.3817 19.0263 14.3051 20 12 20C7.58 20 4 16.42 4 12ZM19 12C19 8.13 15.87 5 12 5V8.37372L15.6263 12H19ZM12.3736 12L12 11.6264V12H12.3736Z"/>
<path d="M3.5 2.5L21 20L19.5 21.5L2 4L3.5 2.5Z"/>
</svg>
