<svg width="24" height="24" viewBox="0 0 24 24" fill="none" xmlns="http://www.w3.org/2000/svg">
<mask id="mask0_4998_89519" style="mask-type:alpha" maskUnits="userSpaceOnUse" x="0" y="0" width="24" height="24">
<rect width="24" height="24" fill="#D9D9D9"/>
</mask>
<g mask="url(#mask0_4998_89519)">
<path d="M5.1499 18.8374H6.4499L15.1249 10.1624L13.8249 8.86242L5.1499 17.5374V18.8374ZM19.1249 8.82492L15.1499 4.87492L16.4749 3.54992C16.8416 3.18326 17.2853 3.00201 17.8062 3.00617C18.327 3.01034 18.7666 3.19576 19.1249 3.56242L20.4374 4.87492C20.7957 5.23326 20.9791 5.66867 20.9874 6.18117C20.9957 6.69367 20.8207 7.12909 20.4624 7.48742L19.1249 8.82492ZM17.7874 10.1749L7.2499 20.7124H3.2749V16.7374L13.8124 6.19992L17.7874 10.1749Z" fill="#1C1B1F"/>
</g>
</svg>
