<svg width="24" height="24" viewBox="0 0 24 24" fill="none" xmlns="http://www.w3.org/2000/svg">
<path d="M20.475 23.3L17.525 20.35C16.725 20.8833 15.8627 21.2917 14.938 21.575C14.0127 21.8583 13.0334 22 12 22C10.6167 22 9.31672 21.7373 8.10005 21.212C6.88338 20.6873 5.82505 19.975 4.92505 19.075C4.02505 18.175 3.31272 17.1167 2.78805 15.9C2.26272 14.6833 2.00005 13.3833 2.00005 12C2.00005 10.9667 2.14172 9.98733 2.42505 9.062C2.70838 8.13733 3.11672 7.275 3.65005 6.475L0.675049 3.5L2.10005 2.075L21.9 21.875L20.475 23.3ZM11 19.95V18C10.45 18 9.97938 17.8043 9.58805 17.413C9.19605 17.021 9.00005 16.55 9.00005 16V15L4.20005 10.2C4.15005 10.5 4.10405 10.8 4.06205 11.1C4.02072 11.4 4.00005 11.7 4.00005 12C4.00005 14.0167 4.66272 15.7833 5.98805 17.3C7.31272 18.8167 8.98338 19.7 11 19.95ZM20.35 17.475L18.9 16.025C19.25 15.4083 19.5207 14.7623 19.712 14.087C19.904 13.4123 20 12.7167 20 12C20 10.3667 19.5461 8.875 18.6381 7.525C17.7294 6.175 16.5167 5.2 15 4.6V5C15 5.55 14.8044 6.02067 14.413 6.412C14.021 6.804 13.55 7 13 7H11V8.125L6.52505 3.65C7.32505 3.13333 8.18338 2.72933 9.10005 2.438C10.0167 2.146 10.9834 2 12 2C13.3834 2 14.6834 2.26233 15.9 2.787C17.1167 3.31233 18.1751 4.025 19.0751 4.925C19.9751 5.825 20.6874 6.88333 21.212 8.1C21.7374 9.31667 22 10.6167 22 12C22 13.0167 21.854 13.9833 21.562 14.9C21.2707 15.8167 20.8667 16.675 20.35 17.475Z" fill="black"/>
</svg>
