<svg width="24" height="24" viewBox="0 0 24 24" fill="none" xmlns="http://www.w3.org/2000/svg">
<circle cx="12" cy="12" r="3" stroke="black" stroke-width="2"/>
<path fill-rule="evenodd" clip-rule="evenodd" d="M21.9702 3.13281C21.99 2.76906 22 2.39166 22 2H20C20 2.35758 19.9908 2.69871 19.9731 3.02423L21.9702 3.13281ZM20.9849 7.62462C21.2852 6.96111 21.5222 6.21951 21.6914 5.38987L19.7317 4.99026C19.5891 5.68999 19.395 6.28701 19.1628 6.79987L20.9849 7.62462ZM17.7839 11.1808C18.4649 10.7805 19.1043 10.2849 19.6697 9.65666L18.183 8.31888C17.7723 8.7753 17.2991 9.14589 16.7705 9.4566L17.7839 11.1808ZM7.70347 14.5588C7.60397 14.3921 7.51389 14.2191 7.43397 14.0405L6.71609 12.8192C6.03509 13.2195 5.39566 13.7151 4.83031 14.3433L6.31703 15.6811C6.72097 15.2322 7.18536 14.8663 7.70347 14.5588ZM4.76825 19.0097C4.91094 18.31 5.10501 17.713 5.33716 17.2001L3.51513 16.3754C3.21479 17.0389 2.97776 17.7805 2.80858 18.6101L4.76825 19.0097ZM4.5 22C4.5 21.6424 4.50916 21.3013 4.52686 20.9758L2.52981 20.8672C2.51003 21.2309 2.5 21.6083 2.5 22H4.5Z" fill="black"/>
</svg>
