<svg width="24" height="24" viewBox="0 0 24 24" fill="none" xmlns="http://www.w3.org/2000/svg">
<circle cx="12" cy="12" r="3" stroke="black" stroke-width="2"/>
<path fill-rule="evenodd" clip-rule="evenodd" d="M4.5 22C4.5 18.1905 5.53268 16.2678 6.87671 15.1414C7.13569 14.9244 7.41156 14.7315 7.70309 14.5582C7.35985 13.9829 7.12886 13.3328 7.04036 12.6383C6.53155 12.9106 6.04448 13.2294 5.59204 13.6086C3.65482 15.2322 2.5 17.8095 2.5 22H4.5ZM16.4161 9.65303C16.7297 10.2419 16.9289 10.9008 16.9843 11.6003C17.6655 11.2798 18.3163 10.8873 18.908 10.3914C20.8452 8.76785 22 6.19054 22 2H20C20 5.80946 18.9673 7.73215 17.6233 8.85858C17.254 9.16805 16.8505 9.42832 16.4161 9.65303Z" fill="black"/>
</svg>
