<svg width="24" height="24" viewBox="0 0 24 24" fill="none" xmlns="http://www.w3.org/2000/svg">
<mask id="mask0_4995_89403" style="mask-type:alpha" maskUnits="userSpaceOnUse" x="0" y="0" width="24" height="24">
<rect width="24" height="24" fill="#D9D9D9"/>
</mask>
<g mask="url(#mask0_4995_89403)">
<path d="M4.99994 21C4.14994 21 3.54577 20.6208 3.18744 19.8625C2.82911 19.1042 2.91661 18.4 3.44994 17.75L8.99994 11V5H7.99994C7.71661 5 7.47911 4.90417 7.28744 4.7125C7.09577 4.52083 6.99994 4.28333 6.99994 4C6.99994 3.71667 7.09577 3.47917 7.28744 3.2875C7.47911 3.09583 7.71661 3 7.99994 3H15.9999C16.2833 3 16.5208 3.09583 16.7124 3.2875C16.9041 3.47917 16.9999 3.71667 16.9999 4C16.9999 4.28333 16.9041 4.52083 16.7124 4.7125C16.5208 4.90417 16.2833 5 15.9999 5H14.9999V11L20.5499 17.75C21.0833 18.4 21.1708 19.1042 20.8124 19.8625C20.4541 20.6208 19.8499 21 18.9999 21H4.99994ZM4.99994 19H18.9999L12.9999 11.7V5H10.9999V11.7L4.99994 19Z" fill="#1C1B1F"/>
</g>
<path d="M13.9077 18.5491L13.9077 17.2393L13.9077 15.9295L16.5129 17.2393L13.9077 18.5491Z" fill="black"/>
<path d="M12.6052 14.6196H11.3026H9.99998L11.3026 12L12.6052 14.6196Z" fill="black"/>
<path d="M11.3025 17.2393C12.6533 17.2393 12.9428 17.2393 13.9077 17.2393" stroke="black" stroke-width="0.75"/>
<path d="M11.3025 17.2392C11.3025 15.8809 11.3025 15.5899 11.3025 14.6196" stroke="black" stroke-width="0.75"/>
<ellipse cx="11.3026" cy="17.2393" rx="1.30262" ry="1.30981" fill="black"/>
</svg>
