<svg width="24" height="24" viewBox="0 0 24 24" fill="none" xmlns="http://www.w3.org/2000/svg">
<mask id="mask0_4995_89405" style="mask-type:alpha" maskUnits="userSpaceOnUse" x="0" y="0" width="24" height="24">
<rect width="24" height="24" fill="#1C1B1F"/>
</mask>
<g mask="url(#mask0_4995_89405)">
<path d="M3.97498 21V18H7.07498L4.52498 9.65002C4.07498 9.40002 3.70414 9.03336 3.41248 8.55002C3.12081 8.06669 2.97498 7.55002 2.97498 7.00002C2.97498 6.16669 3.26664 5.45836 3.84998 4.87502C4.43331 4.29169 5.14164 4.00002 5.97498 4.00002C6.62498 4.00002 7.20414 4.18752 7.71248 4.56252C8.22081 4.93752 8.57498 5.41669 8.77498 6.00002H11.975V5.00002C11.975 4.71669 12.0708 4.47919 12.2625 4.28752C12.4541 4.09586 12.6916 4.00002 12.975 4.00002C13.125 4.00002 13.2708 4.03336 13.4125 4.10002C13.5541 4.16669 13.675 4.26669 13.775 4.40002L15.475 2.80002C15.625 2.65002 15.8041 2.55419 16.0125 2.51252C16.2208 2.47086 16.425 2.50002 16.625 2.60002L20.525 4.40002C20.725 4.50002 20.8625 4.64586 20.9375 4.83752C21.0125 5.02919 21.0083 5.21669 20.925 5.40002C20.825 5.60002 20.6791 5.72919 20.4875 5.78752C20.2958 5.84586 20.1083 5.83336 19.925 5.75002L16.325 4.10002L13.975 6.30002V7.70002L16.325 9.85002L19.925 8.20002C20.1083 8.11669 20.3 8.10836 20.5 8.17502C20.7 8.24169 20.8416 8.36669 20.925 8.55002C21.025 8.75002 21.0333 8.94169 20.95 9.12502C20.8666 9.30836 20.725 9.45002 20.525 9.55002L16.625 11.4C16.425 11.5 16.2208 11.5292 16.0125 11.4875C15.8041 11.4459 15.625 11.35 15.475 11.2L13.775 9.60002C13.675 9.70002 13.5541 9.79169 13.4125 9.87502C13.2708 9.95836 13.125 10 12.975 10C12.6916 10 12.4541 9.90419 12.2625 9.71252C12.0708 9.52086 11.975 9.28336 11.975 9.00002V8.00002H8.77498C8.72498 8.13336 8.67081 8.25836 8.61248 8.37502C8.55414 8.49169 8.47498 8.61669 8.37498 8.75002L13.375 18H16.975V21H3.97498ZM5.97498 8.00002C6.25831 8.00002 6.49581 7.90419 6.68748 7.71252C6.87914 7.52086 6.97498 7.28336 6.97498 7.00002C6.97498 6.71669 6.87914 6.47919 6.68748 6.28752C6.49581 6.09586 6.25831 6.00002 5.97498 6.00002C5.69164 6.00002 5.45414 6.09586 5.26248 6.28752C5.07081 6.47919 4.97498 6.71669 4.97498 7.00002C4.97498 7.28336 5.07081 7.52086 5.26248 7.71252C5.45414 7.90419 5.69164 8.00002 5.97498 8.00002ZM9.12498 18H11.075L6.77498 10H6.67498L9.12498 18Z" fill="#1C1B1F"/>
</g>
</svg>
