<svg width="24" height="24" viewBox="0 0 24 24" fill="none" xmlns="http://www.w3.org/2000/svg">
<path d="M2 22C7.18519 16.8148 8.2963 15.7037 12 12" stroke="black" stroke-width="2"/>
<path d="M23 19C17.2963 15.3704 16.0741 14.5926 12 12" stroke="black" stroke-width="2"/>
<path d="M6 0.999999C9.11111 6.7037 9.77778 7.92593 12 12" stroke="black" stroke-width="2"/>
<path fill-rule="evenodd" clip-rule="evenodd" d="M9.5 13.5C10.0523 13.5 10.5 13.9477 10.5 14.5V17C10.5 17.5523 10.9477 18 11.5 18H12.5C13.0523 18 13.5 17.5523 13.5 17L13.5 14.5C13.5 13.9477 13.9477 13.5 14.5 13.5H17C17.5523 13.5 18 13.0523 18 12.5V11.5C18 10.9477 17.5523 10.5 17 10.5H14.5C13.9477 10.5 13.5 10.0523 13.5 9.5L13.5 7C13.5 6.44772 13.0523 6 12.5 6H11.5C10.9477 6 10.5 6.44772 10.5 7V9.5C10.5 10.0523 10.0523 10.5 9.5 10.5H7C6.44772 10.5 6 10.9477 6 11.5V12.5C6 13.0523 6.44772 13.5 7 13.5H9.5Z" fill="white"/>
<path d="M13.5 9.5L12.5 9.5L13.5 9.5ZM13.5 17L12.5 17L13.5 17ZM11.5 17V14.5H9.5V17H11.5ZM12.5 17H11.5V19H12.5V17ZM12.5 14.5L12.5 17L14.5 17L14.5 14.5L12.5 14.5ZM17 12.5H14.5V14.5H17V12.5ZM17 11.5V12.5H19V11.5H17ZM14.5 11.5H17V9.5H14.5V11.5ZM12.5 7L12.5 9.5L14.5 9.5L14.5 7L12.5 7ZM11.5 7H12.5V5H11.5V7ZM11.5 9.5V7H9.5V9.5H11.5ZM7 11.5H9.5V9.5H7V11.5ZM7 12.5V11.5H5V12.5H7ZM9.5 12.5H7V14.5H9.5V12.5ZM5 12.5C5 13.6046 5.89543 14.5 7 14.5V12.5L7 12.5H5ZM7 9.5C5.89543 9.5 5 10.3954 5 11.5H7L7 11.5V9.5ZM9.5 9.5L9.5 9.5V11.5C10.6046 11.5 11.5 10.6046 11.5 9.5H9.5ZM11.5 5C10.3954 5 9.5 5.89543 9.5 7H11.5L11.5 7V5ZM14.5 7C14.5 5.89543 13.6046 5 12.5 5V7L12.5 7L14.5 7ZM14.5 9.5L14.5 9.5L12.5 9.5C12.5 10.6046 13.3954 11.5 14.5 11.5V9.5ZM19 11.5C19 10.3954 18.1046 9.5 17 9.5V11.5L17 11.5H19ZM17 14.5C18.1046 14.5 19 13.6046 19 12.5H17L17 12.5V14.5ZM14.5 14.5L14.5 14.5V12.5C13.3954 12.5 12.5 13.3954 12.5 14.5L14.5 14.5ZM12.5 19C13.6046 19 14.5 18.1046 14.5 17L12.5 17L12.5 17V19ZM11.5 14.5C11.5 13.3954 10.6046 12.5 9.5 12.5V14.5L9.5 14.5H11.5ZM9.5 17C9.5 18.1046 10.3954 19 11.5 19V17L11.5 17H9.5Z" fill="black"/>
</svg>
