<svg width="73" height="69" viewBox="0 0 73 69" fill="none" xmlns="http://www.w3.org/2000/svg">
<path d="M13.0607 15.9393C12.4749 15.3536 11.5251 15.3536 10.9393 15.9393L1.3934 25.4853C0.80761 26.0711 0.807611 27.0208 1.3934 27.6066C1.97918 28.1924 2.92893 28.1924 3.51472 27.6066L12 19.1213L20.4853 27.6066C21.0711 28.1924 22.0208 28.1924 22.6066 27.6066C23.1924 27.0208 23.1924 26.0711 22.6066 25.4853L13.0607 15.9393ZM13.5 57L13.5 17L10.5 17L10.5 57L13.5 57Z" fill="#0029FF"/>
<path d="M53.0607 58.0607C53.6464 57.4749 53.6464 56.5251 53.0607 55.9393L43.5147 46.3934C42.9289 45.8076 41.9792 45.8076 41.3934 46.3934C40.8076 46.9792 40.8076 47.9289 41.3934 48.5147L49.8787 57L41.3934 65.4853C40.8076 66.0711 40.8076 67.0208 41.3934 67.6066C41.9792 68.1924 42.9289 68.1924 43.5147 67.6066L53.0607 58.0607ZM12 58.5H52V55.5H12V58.5Z" fill="#FB0000"/>
<circle cx="12" cy="57" r="5" fill="black"/>
<path d="M62.2734 55.5449V57.0283H55.4512V55.5449H62.2734ZM59.6621 52.7559V60.002H58.0693V52.7559H59.6621ZM65.0967 51.0469L67.209 54.6768L69.3213 51.0469H71.2969L68.2891 55.9756L71.3721 61H69.376L67.209 57.3018L65.042 61H63.0391L66.1289 55.9756L63.1143 51.0469H65.0967Z" fill="black"/>
<path d="M10.2734 7.54492V9.02832H3.45117V7.54492H10.2734ZM7.66211 4.75586V12.002H6.06934V4.75586H7.66211ZM12.7412 3.04688L15.0518 7.79785L17.3623 3.04688H19.2627L15.9131 9.33594V13H14.1836V9.33594L10.834 3.04688H12.7412Z" fill="black"/>
</svg>
