<?xml version="1.0" encoding="utf-8"?>
<!DOCTYPE svg PUBLIC "-//W3C//DTD SVG 1.1//EN" "http://www.w3.org/Graphics/SVG/1.1/DTD/svg11.dtd">
<svg xmlns="http://www.w3.org/2000/svg" xmlns:xlink="http://www.w3.org/1999/xlink" version="1.1" baseProfile="full" viewBox="0 0 512.00 512.00" enable-background="new 0 0 512.00 512.00" xml:space="preserve">
	<ellipse fill="#D2D2D2" fill-opacity="1" stroke-width="5" stroke-linejoin="round" stroke="#000000" stroke-opacity="1" cx="256" cy="256" rx="253.5" ry="253.5"/>
	<g>
		<path fill="#000000" fill-opacity="1" stroke-linejoin="round" d="M 80.7403,310.613L 132.26,257.707L 80.7403,204.8L 101.007,180.907L 154.127,235.253L 207.034,180.907L 227.3,204.8L 175.78,257.707L 227.3,310.613L 207.034,334.507L 154.127,280.16L 101.007,334.507L 80.7403,310.613 Z "/>
		<path fill="#000000" fill-opacity="1" stroke-linejoin="round" d="M 268.26,314.027L 298.98,310.613C 302.322,326.329 307.745,337.653 315.247,344.587C 322.749,351.52 332.847,354.987 345.54,354.987C 360.438,354.987 372.331,350.249 381.22,340.773C 390.109,331.298 394.554,319.573 394.554,305.6C 394.554,292.267 390.171,281.253 381.407,272.56C 372.642,263.867 361.505,259.52 347.994,259.52C 342.482,259.52 335.602,260.622 327.354,262.827L 330.607,235.52C 332.562,235.769 334.109,235.893 335.247,235.893C 346.945,235.893 357.478,232.702 366.847,226.32C 376.216,219.938 380.9,210.116 380.9,196.853C 380.9,186.364 377.425,177.671 370.474,170.773C 363.522,163.876 354.554,160.427 343.567,160.427C 332.687,160.427 323.62,163.84 316.367,170.667C 309.114,177.493 304.456,187.733 302.394,201.387L 271.674,197.973C 275.229,177.387 283.274,161.431 295.807,150.107C 308.34,138.782 323.94,133.12 342.607,133.12C 355.478,133.12 367.327,135.964 378.154,141.653C 388.98,147.342 397.265,155.111 403.007,164.96C 408.749,174.809 411.62,185.262 411.62,196.32C 411.62,206.809 408.785,216.364 403.114,224.987C 397.442,233.609 389.06,240.462 377.967,245.547C 392.402,248.889 403.896,255.813 412.447,266.32C 420.998,276.827 425.274,289.973 425.274,305.76C 425.274,327.093 417.638,345.182 402.367,360.027C 387.096,374.871 367.798,382.293 344.474,382.293C 323.425,382.293 305.949,375.956 292.047,363.28C 278.145,350.604 270.216,334.187 268.26,314.027 Z "/>
	</g>
</svg>
