<?xml version="1.0" encoding="UTF-8"?>
<svg viewBox="0 0 512 512" version="1.1" xmlns="http://www.w3.org/2000/svg" xmlns:xlink="http://www.w3.org/1999/xlink">
    <!-- Generator: Sketch 56.2 (81672) - https://sketch.com -->
    <title>home 2</title>
    <desc>Created with Sketch.</desc>
    <g id="Page-1" stroke="none" stroke-width="1" fill="none" fill-rule="evenodd">
        <circle id="Oval" stroke="#000000" stroke-width="5" fill="#ACACAC" fill-rule="nonzero" cx="256" cy="256" r="253.5"></circle>
        <g id="home" transform="translate(44.000000, 10.000000)" fill="#000000" fill-rule="nonzero" stroke="#000000" stroke-width="5">
            <g id="Group" transform="translate(209.894444, 109.129820) rotate(-45.000000) translate(-209.894444, -109.129820) translate(133.394444, 31.629820)">
                <polygon id="Path" points="152.209789 44.823244 110.371111 2.98456518 26.2097892 87.1458866 68.0484681 128.984565"></polygon>
                <polygon id="Path" points="0.283382377 156.618079 5.6247377 61.6180788 93.2833824 149.903163"></polygon>
            </g>
            <g id="Group" transform="translate(94.500000, 316.500000) rotate(-165.000000) translate(-94.500000, -316.500000) translate(18.000000, 239.000000)">
                <polygon id="Path" points="152.209789 44.823244 110.371111 2.98456518 26.2097892 87.1458866 68.0484681 128.984565"></polygon>
                <polygon id="Path" points="0.283382377 156.618079 5.6247377 61.6180788 93.2833824 149.903163"></polygon>
            </g>
            <g id="Group" transform="translate(329.658908, 313.500000) rotate(75.000000) translate(-329.658908, -313.500000) translate(253.158908, 236.000000)">
                <polygon id="Path" points="152.244694 42.8235486 110.406015 0.984869791 26.2446941 85.1461912 68.0833729 126.98487"></polygon>
                <polygon id="Path" points="0.31828719 154.618383 5.65964251 59.6183834 93.3182872 147.903467"></polygon>
            </g>
        </g>
    </g>
</svg>