<svg width="157" height="120" viewBox="0 0 157 120" fill="none" xmlns="http://www.w3.org/2000/svg">
<path d="M31 6C31 3.23857 33.2386 1 36 1H124C126.761 1 129 3.23858 129 6V99H31V6Z" fill="black"/>
<line x1="2" y1="100.636" x2="155" y2="100.636" stroke="black" stroke-width="4" stroke-linecap="round"/>
<path d="M54.7678 100.868L53 99.1005L49.4645 102.636L51.2322 104.404L54.7678 100.868ZM65.1109 118.282C66.0872 119.259 67.6701 119.259 68.6464 118.282C69.6228 117.306 69.6228 115.723 68.6464 114.747L65.1109 118.282ZM51.2322 104.404L65.1109 118.282L68.6464 114.747L54.7678 100.868L51.2322 104.404Z" fill="black"/>
<path d="M29.7678 100.868L28 99.1005L24.4645 102.636L26.2322 104.404L29.7678 100.868ZM40.1109 118.282C41.0872 119.259 42.6701 119.259 43.6464 118.282C44.6228 117.306 44.6228 115.723 43.6464 114.747L40.1109 118.282ZM26.2322 104.404L40.1109 118.282L43.6464 114.747L29.7678 100.868L26.2322 104.404Z" fill="black"/>
<path d="M79.7678 100.868L78 99.1005L74.4645 102.636L76.2322 104.404L79.7678 100.868ZM90.1109 118.282C91.0872 119.259 92.6701 119.259 93.6464 118.282C94.6228 117.306 94.6228 115.723 93.6464 114.747L90.1109 118.282ZM76.2322 104.404L90.1109 118.282L93.6464 114.747L79.7678 100.868L76.2322 104.404Z" fill="black"/>
<path d="M104.768 100.868L103 99.1005L99.4645 102.636L101.232 104.404L104.768 100.868ZM115.111 118.282C116.087 119.259 117.67 119.259 118.646 118.282C119.623 117.306 119.623 115.723 118.646 114.747L115.111 118.282ZM101.232 104.404L115.111 118.282L118.646 114.747L104.768 100.868L101.232 104.404Z" fill="black"/>
<path d="M129.768 100.868L128 99.1005L124.464 102.636L126.232 104.404L129.768 100.868ZM140.111 118.282C141.087 119.259 142.67 119.259 143.646 118.282C144.623 117.306 144.623 115.723 143.646 114.747L140.111 118.282ZM126.232 104.404L140.111 118.282L143.646 114.747L129.768 100.868L126.232 104.404Z" fill="black"/>
<path d="M106.569 64.1277C107.84 61.829 108.729 59.5143 109.238 57.1836C109.746 54.8529 110 52.4743 110 50.0479C110 41.683 106.998 34.4835 100.993 28.4493C94.9883 22.4151 87.824 19.3979 79.5 19.3979H75.4016L83.0266 11.7355L79.3094 8L65.1078 22.2714L79.3094 36.5428L83.1219 32.7115L75.5922 25.1448H79.5C86.299 25.1448 92.1289 27.5872 96.9898 32.4721C101.851 37.3569 104.281 43.2155 104.281 50.0479C104.281 51.8997 104.107 53.6556 103.757 55.3158C103.408 56.9761 102.979 58.5405 102.47 60.0091L106.569 64.1277ZM79.8813 92L94.0828 77.7286L79.8813 63.4572L76.1641 67.1927L83.7891 74.8552H79.5C72.701 74.8552 66.8711 72.4128 62.0102 67.5279C57.1492 62.6431 54.7188 56.7845 54.7188 49.9521C54.7188 48.1003 54.8776 46.3444 55.1953 44.6842C55.513 43.0239 55.9896 41.4595 56.625 39.9909L52.5266 35.8723C51.2557 38.171 50.3503 40.4857 49.8102 42.8164C49.2701 45.1471 49 47.5257 49 49.9521C49 58.317 52.0023 65.5165 58.007 71.5507C64.0117 77.585 71.176 80.6021 79.5 80.6021H83.7891L76.1641 88.2645L79.8813 92Z" fill="white"/>
</svg>
