<svg width="157" height="120" viewBox="0 0 157 120" fill="none" xmlns="http://www.w3.org/2000/svg">
<path d="M31 6C31 3.23857 33.2386 1 36 1H124C126.761 1 129 3.23858 129 6V99H31V6Z" fill="black"/>
<line x1="2" y1="100.757" x2="155" y2="100.757" stroke="black" stroke-width="4" stroke-linecap="round"/>
<path d="M54.7678 100.99L53 99.2218L49.4645 102.757L51.2322 104.525L54.7678 100.99ZM65.1109 118.404C66.0872 119.38 67.6701 119.38 68.6464 118.404C69.6228 117.427 69.6228 115.845 68.6464 114.868L65.1109 118.404ZM51.2322 104.525L65.1109 118.404L68.6464 114.868L54.7678 100.99L51.2322 104.525Z" fill="black"/>
<path d="M29.7678 100.99L28 99.2218L24.4645 102.757L26.2322 104.525L29.7678 100.99ZM40.1109 118.404C41.0872 119.38 42.6701 119.38 43.6464 118.404C44.6228 117.427 44.6228 115.845 43.6464 114.868L40.1109 118.404ZM26.2322 104.525L40.1109 118.404L43.6464 114.868L29.7678 100.99L26.2322 104.525Z" fill="black"/>
<path d="M79.7678 100.99L78 99.2218L74.4645 102.757L76.2322 104.525L79.7678 100.99ZM90.1109 118.404C91.0872 119.38 92.6701 119.38 93.6464 118.404C94.6228 117.427 94.6228 115.845 93.6464 114.868L90.1109 118.404ZM76.2322 104.525L90.1109 118.404L93.6464 114.868L79.7678 100.99L76.2322 104.525Z" fill="black"/>
<path d="M104.768 100.99L103 99.2218L99.4645 102.757L101.232 104.525L104.768 100.99ZM115.111 118.404C116.087 119.38 117.67 119.38 118.646 118.404C119.623 117.427 119.623 115.845 118.646 114.868L115.111 118.404ZM101.232 104.525L115.111 118.404L118.646 114.868L104.768 100.99L101.232 104.525Z" fill="black"/>
<path d="M129.768 100.99L128 99.2218L124.464 102.757L126.232 104.525L129.768 100.99ZM140.111 118.404C141.087 119.38 142.67 119.38 143.646 118.404C144.623 117.427 144.623 115.845 143.646 114.868L140.111 118.404ZM126.232 104.525L140.111 118.404L143.646 114.868L129.768 100.99L126.232 104.525Z" fill="black"/>
<path d="M52.4312 64.1277C51.1604 61.829 50.2708 59.5143 49.7625 57.1836C49.2542 54.8529 49 52.4743 49 50.0479C49 41.683 52.0023 34.4835 58.007 28.4493C64.0117 22.4151 71.176 19.3979 79.5 19.3979H83.5984L75.9734 11.7355L79.6906 8L93.8922 22.2714L79.6906 36.5428L75.8781 32.7115L83.4078 25.1448H79.5C72.701 25.1448 66.8711 27.5872 62.0102 32.4721C57.1492 37.3569 54.7187 43.2155 54.7187 50.0479C54.7187 51.8997 54.8935 53.6556 55.243 55.3159C55.5924 56.9761 56.0214 58.5405 56.5297 60.0091L52.4312 64.1277ZM79.1187 92L64.9172 77.7286L79.1187 63.4572L82.8359 67.1927L75.2109 74.8552H79.5C86.299 74.8552 92.1289 72.4128 96.9898 67.5279C101.851 62.6431 104.281 56.7845 104.281 49.9521C104.281 48.1003 104.122 46.3444 103.805 44.6842C103.487 43.0239 103.01 41.4595 102.375 39.9909L106.473 35.8723C107.744 38.171 108.65 40.4857 109.19 42.8164C109.73 45.1471 110 47.5257 110 49.9521C110 58.317 106.998 65.5165 100.993 71.5507C94.9883 77.5849 87.824 80.6021 79.5 80.6021H75.2109L82.8359 88.2645L79.1187 92Z" fill="white"/>
</svg>
