<?xml version="1.0" encoding="utf-8"?>
<!DOCTYPE svg PUBLIC "-//W3C//DTD SVG 1.1//EN" "http://www.w3.org/Graphics/SVG/1.1/DTD/svg11.dtd">
<svg xmlns="http://www.w3.org/2000/svg" xmlns:xlink="http://www.w3.org/1999/xlink" version="1.1" baseProfile="full" viewBox="0 0 512.00 512.00" enable-background="new 0 0 512.00 512.00" xml:space="preserve">
	<ellipse fill="#D2D2D2" fill-opacity="1" stroke-width="5" stroke-linejoin="round" stroke="#000000" stroke-opacity="1" cx="256" cy="256" rx="253.5" ry="253.5"/>
	<g>
		<path fill="#000000" fill-opacity="1" stroke-linejoin="round" d="M 80.7403,310.613L 132.26,257.707L 80.7403,204.8L 101.007,180.907L 154.127,235.253L 207.034,180.907L 227.3,204.8L 175.78,257.707L 227.3,310.613L 207.034,334.507L 154.127,280.16L 101.007,334.507L 80.7403,310.613 Z "/>
		<path fill="#000000" fill-opacity="1" stroke-linejoin="round" d="M 421.86,348.16L 421.86,378.88L 261.434,378.88C 261.22,371.449 262.34,364.284 264.794,357.387C 268.705,346.044 274.98,335.022 283.62,324.32C 292.26,313.618 305.025,301.547 321.914,288.107C 348.118,265.742 365.638,248.471 374.474,236.293C 383.309,224.116 387.727,212.32 387.727,200.907C 387.727,189.529 383.549,179.938 375.194,172.133C 366.838,164.329 355.958,160.427 342.554,160.427C 328.367,160.427 317.016,164.347 308.5,172.187C 299.985,180.027 295.674,190.898 295.567,204.8L 264.847,201.387C 266.945,179.164 274.794,162.231 288.394,150.587C 301.994,138.942 320.26,133.12 343.194,133.12C 366.376,133.12 384.714,139.627 398.207,152.64C 411.7,165.653 418.447,181.778 418.447,201.013C 418.447,210.791 416.616,220.4 412.954,229.84C 409.291,239.28 403.211,249.227 394.714,259.68C 386.216,270.133 371.549,284.284 350.714,302.133C 332.829,316.924 321.069,326.96 315.434,332.24C 309.798,337.52 305.149,342.827 301.487,348.16L 421.86,348.16 Z "/>
	</g>
</svg>
