<svg width="407" height="95" viewBox="0 0 407 95" fill="none" xmlns="http://www.w3.org/2000/svg">
<line x1="129" y1="76" x2="282" y2="76" stroke="black" stroke-width="4" stroke-linecap="round"/>
<path d="M181.768 76.2322L180 74.4645L176.464 78L178.232 79.7678L181.768 76.2322ZM192.111 93.6465C193.087 94.6228 194.67 94.6228 195.646 93.6465C196.623 92.6701 196.623 91.0872 195.646 90.1109L192.111 93.6465ZM178.232 79.7678L192.111 93.6465L195.646 90.1109L181.768 76.2322L178.232 79.7678Z" fill="black"/>
<path d="M156.768 76.2322L155 74.4645L151.464 78L153.232 79.7678L156.768 76.2322ZM167.111 93.6465C168.087 94.6228 169.67 94.6228 170.646 93.6465C171.623 92.6701 171.623 91.0872 170.646 90.1109L167.111 93.6465ZM153.232 79.7678L167.111 93.6465L170.646 90.1109L156.768 76.2322L153.232 79.7678Z" fill="black"/>
<path d="M206.768 76.2322L205 74.4645L201.464 78L203.232 79.7678L206.768 76.2322ZM217.111 93.6465C218.087 94.6228 219.67 94.6228 220.646 93.6465C221.623 92.6702 221.623 91.0872 220.646 90.1109L217.111 93.6465ZM203.232 79.7678L217.111 93.6465L220.646 90.1109L206.768 76.2322L203.232 79.7678Z" fill="black"/>
<path d="M231.768 76.2322L230 74.4645L226.464 78L228.232 79.7678L231.768 76.2322ZM242.111 93.6465C243.087 94.6228 244.67 94.6228 245.646 93.6465C246.623 92.6702 246.623 91.0872 245.646 90.1109L242.111 93.6465ZM228.232 79.7678L242.111 93.6465L245.646 90.1109L231.768 76.2322L228.232 79.7678Z" fill="black"/>
<path d="M256.768 76.2323L255 74.4645L251.464 78L253.232 79.7678L256.768 76.2323ZM267.111 93.6465C268.087 94.6228 269.67 94.6228 270.646 93.6465C271.623 92.6702 271.623 91.0872 270.646 90.1109L267.111 93.6465ZM253.232 79.7678L267.111 93.6465L270.646 90.1109L256.768 76.2323L253.232 79.7678Z" fill="black"/>
<line x1="252" y1="76" x2="405" y2="76" stroke="black" stroke-width="4" stroke-linecap="round"/>
<path d="M304.768 76.2322L303 74.4645L299.464 78L301.232 79.7678L304.768 76.2322ZM315.111 93.6465C316.087 94.6228 317.67 94.6228 318.646 93.6465C319.623 92.6702 319.623 91.0872 318.646 90.1109L315.111 93.6465ZM301.232 79.7678L315.111 93.6465L318.646 90.1109L304.768 76.2322L301.232 79.7678Z" fill="black"/>
<path d="M279.768 76.2322L278 74.4645L274.464 78L276.232 79.7678L279.768 76.2322ZM290.111 93.6465C291.087 94.6228 292.67 94.6228 293.646 93.6465C294.623 92.6702 294.623 91.0872 293.646 90.1109L290.111 93.6465ZM276.232 79.7678L290.111 93.6465L293.646 90.1109L279.768 76.2322L276.232 79.7678Z" fill="black"/>
<path d="M329.768 76.2323L328 74.4645L324.464 78L326.232 79.7678L329.768 76.2323ZM340.111 93.6465C341.087 94.6228 342.67 94.6228 343.646 93.6465C344.623 92.6702 344.623 91.0872 343.646 90.1109L340.111 93.6465ZM326.232 79.7678L340.111 93.6465L343.646 90.1109L329.768 76.2323L326.232 79.7678Z" fill="black"/>
<path d="M354.768 76.2323L353 74.4645L349.464 78L351.232 79.7678L354.768 76.2323ZM365.111 93.6465C366.087 94.6228 367.67 94.6228 368.646 93.6465C369.623 92.6702 369.623 91.0872 368.646 90.1109L365.111 93.6465ZM351.232 79.7678L365.111 93.6465L368.646 90.1109L354.768 76.2323L351.232 79.7678Z" fill="black"/>
<path d="M379.768 76.2323L378 74.4645L374.464 78L376.232 79.7678L379.768 76.2323ZM390.111 93.6465C391.087 94.6228 392.67 94.6228 393.646 93.6465C394.623 92.6702 394.623 91.0873 393.646 90.1109L390.111 93.6465ZM376.232 79.7678L390.111 93.6465L393.646 90.1109L379.768 76.2323L376.232 79.7678Z" fill="black"/>
<line x1="3" y1="76" x2="156" y2="76" stroke="black" stroke-width="4" stroke-linecap="round"/>
<path d="M55.7678 76.2322L54 74.4645L50.4645 78L52.2322 79.7678L55.7678 76.2322ZM66.1109 93.6464C67.0872 94.6228 68.6701 94.6228 69.6464 93.6464C70.6228 92.6701 70.6228 91.0872 69.6464 90.1109L66.1109 93.6464ZM52.2322 79.7678L66.1109 93.6464L69.6464 90.1109L55.7678 76.2322L52.2322 79.7678Z" fill="black"/>
<path d="M30.7678 76.2322L29 74.4645L25.4645 78L27.2322 79.7678L30.7678 76.2322ZM41.1109 93.6464C42.0872 94.6228 43.6701 94.6228 44.6464 93.6464C45.6228 92.6701 45.6228 91.0872 44.6464 90.1109L41.1109 93.6464ZM27.2322 79.7678L41.1109 93.6464L44.6464 90.1109L30.7678 76.2322L27.2322 79.7678Z" fill="black"/>
<path d="M80.7678 76.2322L79 74.4645L75.4645 78L77.2322 79.7678L80.7678 76.2322ZM91.1109 93.6464C92.0872 94.6228 93.6701 94.6228 94.6464 93.6464C95.6228 92.6701 95.6228 91.0872 94.6464 90.1109L91.1109 93.6464ZM77.2322 79.7678L91.1109 93.6464L94.6464 90.1109L80.7678 76.2322L77.2322 79.7678Z" fill="black"/>
<path d="M105.768 76.2322L104 74.4645L100.464 78L102.232 79.7678L105.768 76.2322ZM116.111 93.6464C117.087 94.6228 118.67 94.6228 119.646 93.6464C120.623 92.6701 120.623 91.0872 119.646 90.1109L116.111 93.6464ZM102.232 79.7678L116.111 93.6464L119.646 90.1109L105.768 76.2322L102.232 79.7678Z" fill="black"/>
<path d="M130.768 76.2322L129 74.4645L125.464 78L127.232 79.7678L130.768 76.2322ZM141.111 93.6465C142.087 94.6228 143.67 94.6228 144.646 93.6465C145.623 92.6701 145.623 91.0872 144.646 90.1109L141.111 93.6465ZM127.232 79.7678L141.111 93.6465L144.646 90.1109L130.768 76.2322L127.232 79.7678Z" fill="black"/>
<line x1="282" y1="18.8787" x2="129" y2="18.8787" stroke="black" stroke-width="4" stroke-linecap="round"/>
<path d="M229.232 18.6465L231 20.4142L234.536 16.8787L232.768 15.1109L229.232 18.6465ZM218.889 1.23225C217.913 0.255939 216.33 0.255939 215.354 1.23225C214.377 2.20856 214.377 3.79147 215.354 4.76778L218.889 1.23225ZM232.768 15.1109L218.889 1.23225L215.354 4.76778L229.232 18.6465L232.768 15.1109Z" fill="black"/>
<path d="M254.232 18.6465L256 20.4142L259.536 16.8787L257.768 15.1109L254.232 18.6465ZM243.889 1.23225C242.913 0.255941 241.33 0.255942 240.354 1.23225C239.377 2.20856 239.377 3.79147 240.354 4.76779L243.889 1.23225ZM257.768 15.1109L243.889 1.23225L240.354 4.76779L254.232 18.6465L257.768 15.1109Z" fill="black"/>
<path d="M204.232 18.6465L206 20.4142L209.536 16.8787L207.768 15.1109L204.232 18.6465ZM193.889 1.23225C192.913 0.255937 191.33 0.255937 190.354 1.23225C189.377 2.20856 189.377 3.79147 190.354 4.76778L193.889 1.23225ZM207.768 15.1109L193.889 1.23225L190.354 4.76778L204.232 18.6465L207.768 15.1109Z" fill="black"/>
<path d="M179.232 18.6465L181 20.4142L184.536 16.8787L182.768 15.1109L179.232 18.6465ZM168.889 1.23225C167.913 0.255935 166.33 0.255935 165.354 1.23225C164.377 2.20856 164.377 3.79147 165.354 4.76778L168.889 1.23225ZM182.768 15.1109L168.889 1.23225L165.354 4.76778L179.232 18.6465L182.768 15.1109Z" fill="black"/>
<path d="M154.232 18.6465L156 20.4142L159.536 16.8787L157.768 15.1109L154.232 18.6465ZM143.889 1.23224C142.913 0.255933 141.33 0.255933 140.354 1.23224C139.377 2.20855 139.377 3.79147 140.354 4.76778L143.889 1.23224ZM157.768 15.1109L143.889 1.23224L140.354 4.76778L154.232 18.6465L157.768 15.1109Z" fill="black"/>
<line x1="404" y1="18.8787" x2="251" y2="18.8787" stroke="black" stroke-width="4" stroke-linecap="round"/>
<path d="M351.232 18.6465L353 20.4142L356.536 16.8787L354.768 15.1109L351.232 18.6465ZM340.889 1.23226C339.913 0.25595 338.33 0.25595 337.354 1.23226C336.377 2.20857 336.377 3.79148 337.354 4.76779L340.889 1.23226ZM354.768 15.1109L340.889 1.23226L337.354 4.76779L351.232 18.6465L354.768 15.1109Z" fill="black"/>
<path d="M376.232 18.6465L378 20.4142L381.536 16.8787L379.768 15.1109L376.232 18.6465ZM365.889 1.23226C364.913 0.255952 363.33 0.255952 362.354 1.23226C361.377 2.20857 361.377 3.79149 362.354 4.7678L365.889 1.23226ZM379.768 15.1109L365.889 1.23226L362.354 4.7678L376.232 18.6465L379.768 15.1109Z" fill="black"/>
<path d="M326.232 18.6465L328 20.4142L331.536 16.8787L329.768 15.1109L326.232 18.6465ZM315.889 1.23226C314.913 0.255948 313.33 0.255948 312.354 1.23226C311.377 2.20857 311.377 3.79148 312.354 4.76779L315.889 1.23226ZM329.768 15.1109L315.889 1.23226L312.354 4.76779L326.232 18.6465L329.768 15.1109Z" fill="black"/>
<path d="M301.232 18.6465L303 20.4142L306.536 16.8787L304.768 15.1109L301.232 18.6465ZM290.889 1.23226C289.913 0.255945 288.33 0.255946 287.354 1.23226C286.377 2.20857 286.377 3.79148 287.354 4.76779L290.889 1.23226ZM304.768 15.1109L290.889 1.23226L287.354 4.76779L301.232 18.6465L304.768 15.1109Z" fill="black"/>
<path d="M276.232 18.6465L278 20.4142L281.536 16.8787L279.768 15.1109L276.232 18.6465ZM265.889 1.23225C264.913 0.255943 263.33 0.255944 262.354 1.23225C261.377 2.20856 261.377 3.79148 262.354 4.76779L265.889 1.23225ZM279.768 15.1109L265.889 1.23225L262.354 4.76779L276.232 18.6465L279.768 15.1109Z" fill="black"/>
<line x1="155" y1="18.8787" x2="2" y2="18.8787" stroke="black" stroke-width="4" stroke-linecap="round"/>
<path d="M102.232 18.6465L104 20.4142L107.536 16.8787L105.768 15.1109L102.232 18.6465ZM91.8891 1.23224C90.9128 0.255928 89.3299 0.255928 88.3536 1.23224C87.3772 2.20855 87.3772 3.79146 88.3536 4.76777L91.8891 1.23224ZM105.768 15.1109L91.8891 1.23224L88.3536 4.76777L102.232 18.6465L105.768 15.1109Z" fill="black"/>
<path d="M127.232 18.6465L129 20.4142L132.536 16.8787L130.768 15.1109L127.232 18.6465ZM116.889 1.23224C115.913 0.25593 114.33 0.25593 113.354 1.23224C112.377 2.20855 112.377 3.79146 113.354 4.76777L116.889 1.23224ZM130.768 15.1109L116.889 1.23224L113.354 4.76777L127.232 18.6465L130.768 15.1109Z" fill="black"/>
<path d="M77.2322 18.6465L79 20.4142L82.5355 16.8787L80.7678 15.1109L77.2322 18.6465ZM66.8891 1.23224C65.9128 0.255926 64.3299 0.255926 63.3536 1.23224C62.3772 2.20855 62.3772 3.79146 63.3536 4.76777L66.8891 1.23224ZM80.7678 15.1109L66.8891 1.23224L63.3536 4.76777L77.2322 18.6465L80.7678 15.1109Z" fill="black"/>
<path d="M52.2322 18.6464L54 20.4142L57.5355 16.8787L55.7678 15.1109L52.2322 18.6464ZM41.8891 1.23223C40.9128 0.255923 39.3299 0.255924 38.3536 1.23223C37.3772 2.20854 37.3772 3.79146 38.3536 4.76777L41.8891 1.23223ZM55.7678 15.1109L41.8891 1.23223L38.3536 4.76777L52.2322 18.6464L55.7678 15.1109Z" fill="black"/>
<path d="M27.2322 18.6464L29 20.4142L32.5355 16.8787L30.7678 15.1109L27.2322 18.6464ZM16.8891 1.23223C15.9128 0.255921 14.3299 0.255922 13.3536 1.23223C12.3772 2.20854 12.3772 3.79145 13.3536 4.76777L16.8891 1.23223ZM30.7678 15.1109L16.8891 1.23223L13.3536 4.76777L27.2322 18.6464L30.7678 15.1109Z" fill="black"/>
</svg>
