<?xml version="1.0" standalone="no"?>
<!DOCTYPE svg PUBLIC "-//W3C//DTD SVG 20010904//EN"
 "http://www.w3.org/TR/2001/REC-SVG-20010904/DTD/svg10.dtd">
<svg version="1.0" xmlns="http://www.w3.org/2000/svg"
 width="225.000000pt" height="225.000000pt" viewBox="0 0 225.000000 225.000000"
 preserveAspectRatio="xMidYMid meet">
<metadata>
Created by potrace 1.16, written by Peter Selinger 2001-2019
</metadata>
<g transform="translate(0.000000,225.000000) scale(0.100000,-0.100000)"
fill="#000000" stroke="none">
<path d="M150 1205 l0 -665 980 0 980 0 0 665 0 665 -980 0 -980 0 0 -665z
m640 165 l0 -150 -315 0 -315 0 0 150 0 150 315 0 315 0 0 -150z m650 0 l0
-150 -315 0 -315 0 0 150 0 150 315 0 315 0 0 -150z m650 0 l0 -150 -315 0
-315 0 0 150 0 150 315 0 315 0 0 -150z m-1300 -325 l0 -155 -315 0 -315 0 0
148 c0 82 3 152 7 155 3 4 145 7 315 7 l308 0 0 -155z m650 0 l0 -155 -315 0
-315 0 0 155 0 155 315 0 315 0 0 -155z m650 0 l0 -155 -315 0 -315 0 0 155 0
155 315 0 315 0 0 -155z m-1300 -330 l0 -155 -312 2 -313 3 -3 153 -3 152 316
0 315 0 0 -155z m650 0 l0 -155 -315 0 -315 0 0 155 0 155 315 0 315 0 0 -155z
m650 0 l0 -155 -315 0 -315 0 0 155 0 155 315 0 315 0 0 -155z"/>
</g>
</svg>
