<?xml version="1.0" encoding="UTF-8"?>
<svg width="700pt" height="700pt" version="1.1" viewBox="0 0 700 700" xmlns="http://www.w3.org/2000/svg" xmlns:xlink="http://www.w3.org/1999/xlink">
 <defs>
  <symbol id="l" overflow="visible">
   <path d="m29.312-1.75c-1.5117 0.78125-3.0898 1.3711-4.7344 1.7656-1.6367 0.40625-3.3398 0.60938-5.1094 0.60938-5.3125 0-9.5273-1.4844-12.641-4.4531-3.1055-2.9688-4.6562-7-4.6562-12.094s1.5508-9.125 4.6562-12.094c3.1133-2.9688 7.3281-4.4531 12.641-4.4531 1.7695 0 3.4727 0.19922 5.1094 0.59375 1.6445 0.39844 3.2227 0.99219 4.7344 1.7812v6.5938c-1.5312-1.0391-3.0391-1.8008-4.5156-2.2812-1.4805-0.48828-3.0391-0.73438-4.6719-0.73438-2.9375 0-5.2461 0.94531-6.9219 2.8281-1.6797 1.875-2.5156 4.4648-2.5156 7.7656 0 3.293 0.83594 5.8828 2.5156 7.7656 1.6758 1.875 3.9844 2.8125 6.9219 2.8125 1.6328 0 3.1914-0.23828 4.6719-0.71875 1.4766-0.48828 2.9844-1.2539 4.5156-2.2969z"/>
  </symbol>
  <symbol id="i" overflow="visible">
   <path d="m21.453-17.406c-0.67969-0.3125-1.3516-0.53906-2.0156-0.6875-0.65625-0.15625-1.3203-0.23438-1.9844-0.23438-1.9688 0-3.4844 0.63281-4.5469 1.8906-1.0547 1.2617-1.5781 3.0703-1.5781 5.4219v11.016h-7.6562v-23.922h7.6562v3.9219c0.97656-1.5625 2.1016-2.7031 3.375-3.4219 1.2812-0.71875 2.8125-1.0781 4.5938-1.0781 0.25 0 0.52344 0.011719 0.82812 0.03125 0.30078 0.023438 0.73438 0.070312 1.2969 0.14062z"/>
  </symbol>
  <symbol id="a" overflow="visible">
   <path d="m27.562-12.031v2.1875h-17.891c0.1875 1.793 0.83203 3.1367 1.9375 4.0312 1.1133 0.89844 2.6719 1.3438 4.6719 1.3438 1.6016 0 3.25-0.23438 4.9375-0.70312 1.6875-0.47656 3.4219-1.2031 5.2031-2.1719v5.8906c-1.8047 0.6875-3.6094 1.2031-5.4219 1.5469-1.8125 0.35156-3.6211 0.53125-5.4219 0.53125-4.3359 0-7.7031-1.0977-10.109-3.2969-2.3984-2.207-3.5938-5.2969-3.5938-9.2656 0-3.9062 1.1758-6.9727 3.5312-9.2031 2.3633-2.2383 5.6094-3.3594 9.7344-3.3594 3.7578 0 6.7695 1.1367 9.0312 3.4062 2.2578 2.2617 3.3906 5.2812 3.3906 9.0625zm-7.8594-2.5312c0-1.457-0.42969-2.6289-1.2812-3.5156-0.84375-0.89453-1.9492-1.3438-3.3125-1.3438-1.4922 0-2.6992 0.41797-3.625 1.25-0.91797 0.83594-1.4922 2.0391-1.7188 3.6094z"/>
  </symbol>
  <symbol id="h" overflow="visible">
   <path d="m14.391-10.766c-1.5938 0-2.793 0.27344-3.5938 0.8125-0.80469 0.54297-1.2031 1.3398-1.2031 2.3906 0 0.96875 0.32031 1.7305 0.96875 2.2812 0.64453 0.54297 1.5469 0.8125 2.7031 0.8125 1.4375 0 2.6445-0.51562 3.625-1.5469 0.98828-1.0312 1.4844-2.3203 1.4844-3.875v-0.875zm11.688-2.8906v13.656h-7.7031v-3.5469c-1.0312 1.4492-2.1875 2.5078-3.4688 3.1719s-2.8398 1-4.6719 1c-2.4805 0-4.4961-0.72266-6.0469-2.1719-1.543-1.4453-2.3125-3.3203-2.3125-5.625 0-2.8125 0.96094-4.8672 2.8906-6.1719 1.9375-1.3125 4.9688-1.9688 9.0938-1.9688h4.5156v-0.60938c0-1.207-0.48047-2.0938-1.4375-2.6562-0.94922-0.5625-2.4375-0.84375-4.4688-0.84375-1.6367 0-3.1562 0.16797-4.5625 0.5-1.4062 0.32422-2.7188 0.8125-3.9375 1.4688v-5.8281c1.6445-0.40625 3.2891-0.70703 4.9375-0.90625 1.6562-0.20703 3.3047-0.3125 4.9531-0.3125 4.3203 0 7.4375 0.85547 9.3438 2.5625 1.9141 1.6992 2.875 4.4609 2.875 8.2812z"/>
  </symbol>
  <symbol id="g" overflow="visible">
   <path d="m12.031-30.719v6.7969h7.875v5.4688h-7.875v10.141c0 1.1172 0.21875 1.8711 0.65625 2.2656 0.4375 0.38672 1.3125 0.57812 2.625 0.57812h3.9375v5.4688h-6.5625c-3.0234 0-5.1641-0.62891-6.4219-1.8906-1.2617-1.2578-1.8906-3.3984-1.8906-6.4219v-10.141h-3.7969v-5.4688h3.7969v-6.7969z"/>
  </symbol>
  <symbol id="f" overflow="visible">
   <path d="m19.953-20.422v-12.812h7.6875v33.234h-7.6875v-3.4531c-1.0547 1.4062-2.2148 2.4375-3.4844 3.0938-1.2734 0.65625-2.7422 0.98438-4.4062 0.98438-2.9492 0-5.3711-1.1719-7.2656-3.5156-1.8867-2.3438-2.8281-5.3594-2.8281-9.0469s0.94141-6.7031 2.8281-9.0469c1.8945-2.3438 4.3164-3.5156 7.2656-3.5156 1.6562 0 3.1172 0.33594 4.3906 1 1.2812 0.65625 2.4453 1.6836 3.5 3.0781zm-5.0469 15.484c1.6445 0 2.8945-0.59766 3.75-1.7969 0.86328-1.1953 1.2969-2.9297 1.2969-5.2031 0-2.2812-0.43359-4.0195-1.2969-5.2188-0.85547-1.1953-2.1055-1.7969-3.75-1.7969-1.625 0-2.8711 0.60156-3.7344 1.7969-0.85547 1.1992-1.2812 2.9375-1.2812 5.2188 0 2.2734 0.42578 4.0078 1.2812 5.2031 0.86328 1.1992 2.1094 1.7969 3.7344 1.7969z"/>
  </symbol>
  <symbol id="e" overflow="visible">
   <path d="m16.406-4.9375c1.6328 0 2.8828-0.59766 3.75-1.7969 0.86328-1.1953 1.2969-2.9297 1.2969-5.2031 0-2.2812-0.43359-4.0195-1.2969-5.2188-0.86719-1.1953-2.1172-1.7969-3.75-1.7969-1.6367 0-2.8906 0.60547-3.7656 1.8125-0.875 1.1992-1.3125 2.9336-1.3125 5.2031 0 2.2617 0.4375 3.9961 1.3125 5.2031 0.875 1.1992 2.1289 1.7969 3.7656 1.7969zm-5.0781-15.484c1.0508-1.3945 2.2188-2.4219 3.5-3.0781 1.2812-0.66406 2.7539-1 4.4219-1 2.9453 0 5.3672 1.1719 7.2656 3.5156 1.8945 2.3438 2.8438 5.3594 2.8438 9.0469s-0.94922 6.7031-2.8438 9.0469c-1.8984 2.3438-4.3203 3.5156-7.2656 3.5156-1.668 0-3.1406-0.33594-4.4219-1s-2.4492-1.6914-3.5-3.0781v3.4531h-7.6562v-33.234h7.6562z"/>
  </symbol>
  <symbol id="d" overflow="visible">
   <path d="m0.53125-23.922h7.6562l6.4219 16.234 5.4688-16.234h7.6562l-10.062 26.188c-1.0117 2.6641-2.1953 4.5234-3.5469 5.5781-1.3438 1.0625-3.1211 1.5938-5.3281 1.5938h-4.4219v-5.0156h2.3906c1.3008 0 2.2422-0.21094 2.8281-0.625 0.59375-0.40625 1.0547-1.1484 1.3906-2.2188l0.20312-0.65625z"/>
  </symbol>
  <symbol id="c" overflow="visible">
   <path d="m4.0156-31.891h10.469l7.2656 17.062 7.2969-17.062h10.453v31.891h-7.7812v-23.328l-7.3438 17.203h-5.2188l-7.3438-17.203v23.328h-7.7969z"/>
  </symbol>
  <symbol id="b" overflow="visible">
   <path d="m15.062-19.031c-1.6992 0-2.9961 0.60938-3.8906 1.8281-0.88672 1.2188-1.3281 2.9766-1.3281 5.2656 0 2.293 0.44141 4.0469 1.3281 5.2656 0.89453 1.2188 2.1914 1.8281 3.8906 1.8281 1.6641 0 2.9375-0.60938 3.8125-1.8281 0.88281-1.2188 1.3281-2.9727 1.3281-5.2656 0-2.2891-0.44531-4.0469-1.3281-5.2656-0.875-1.2188-2.1484-1.8281-3.8125-1.8281zm0-5.4688c4.1133 0 7.3281 1.1094 9.6406 3.3281s3.4688 5.2969 3.4688 9.2344c0 3.9297-1.1562 7.0078-3.4688 9.2344-2.3125 2.2188-5.5273 3.3281-9.6406 3.3281-4.1367 0-7.3711-1.1094-9.7031-3.3281-2.3242-2.2266-3.4844-5.3047-3.4844-9.2344 0-3.9375 1.1602-7.0156 3.4844-9.2344 2.332-2.2188 5.5664-3.3281 9.7031-3.3281z"/>
  </symbol>
  <symbol id="k" overflow="visible">
   <path d="m25.844-19.953c0.96875-1.4766 2.1172-2.6016 3.4531-3.375 1.332-0.78125 2.7969-1.1719 4.3906-1.1719 2.75 0 4.8438 0.85156 6.2812 2.5469 1.4375 1.6875 2.1562 4.1523 2.1562 7.3906v14.562h-7.6875v-12.469c0.007812-0.1875 0.019531-0.37891 0.03125-0.57812 0.007812-0.19531 0.015625-0.48438 0.015625-0.85938 0-1.6953-0.25-2.9258-0.75-3.6875-0.5-0.75781-1.3086-1.1406-2.4219-1.1406-1.4492 0-2.5703 0.60156-3.3594 1.7969-0.79297 1.1992-1.2031 2.9297-1.2344 5.1875v11.75h-7.6875v-12.469c0-2.6562-0.23047-4.3633-0.6875-5.125-0.44922-0.75781-1.2578-1.1406-2.4219-1.1406-1.4688 0-2.6055 0.60547-3.4062 1.8125-0.79297 1.1992-1.1875 2.918-1.1875 5.1562v11.766h-7.7031v-23.922h7.7031v3.5c0.9375-1.3516 2.0156-2.3672 3.2344-3.0469 1.2188-0.6875 2.5547-1.0312 4.0156-1.0312 1.6562 0 3.1133 0.40234 4.375 1.2031 1.2695 0.79297 2.2344 1.9062 2.8906 3.3438z"/>
  </symbol>
  <symbol id="j" overflow="visible">
   <path d="m22.359-23.172v5.7969c-1.6367-0.67578-3.2148-1.1875-4.7344-1.5312-1.5234-0.34375-2.9609-0.51562-4.3125-0.51562-1.4609 0-2.543 0.18359-3.25 0.54688-0.69922 0.36719-1.0469 0.92188-1.0469 1.6719 0 0.61719 0.26562 1.0898 0.79688 1.4219 0.53125 0.32422 1.4883 0.5625 2.875 0.71875l1.3438 0.1875c3.9141 0.5 6.5508 1.3242 7.9062 2.4688 1.3516 1.1367 2.0312 2.9219 2.0312 5.3594 0 2.5547-0.94531 4.4688-2.8281 5.75-1.875 1.2812-4.6797 1.9219-8.4062 1.9219-1.5859 0-3.2188-0.125-4.9062-0.375s-3.4219-0.625-5.2031-1.125v-5.8125c1.5195 0.74219 3.082 1.2969 4.6875 1.6719 1.6016 0.36719 3.2344 0.54688 4.8906 0.54688 1.4883 0 2.6094-0.20312 3.3594-0.60938 0.75781-0.41406 1.1406-1.0312 1.1406-1.8438 0-0.6875-0.26172-1.1953-0.78125-1.5312-0.52344-0.33203-1.5586-0.59375-3.1094-0.78125l-1.3438-0.17188c-3.4062-0.42578-5.793-1.2109-7.1562-2.3594-1.3672-1.1562-2.0469-2.9102-2.0469-5.2656 0-2.5312 0.86719-4.4062 2.6094-5.625 1.7383-1.2266 4.3984-1.8438 7.9844-1.8438 1.4062 0 2.8828 0.10938 4.4375 0.32812 1.5508 0.21094 3.2383 0.54297 5.0625 1z"/>
  </symbol>
 </defs>
 <g>
  <path d="m612.01 380.65c-1.2148-15.371-9.8438-29.18-23.121-37.008-9.3047-6.3242-164.91-110.82-164.91-110.82l61.781-221.72c1.1445-4.0977-0.82031-8.4258-4.6602-10.254-3.8398-1.8281-8.4375-0.63281-10.898 2.8359l-119.88 168.95-13.051-67.992c-1.0234-5.3125-4.1523-9.9844-8.6758-12.949-4.5273-2.9648-10.062-3.9727-15.34-2.7891-5.2773 1.1875-9.8516 4.4609-12.676 9.0742l-25.234 41.254c-38.59-12.254-63.668 1.3828-78.168 15.527-15.02 15.941-25.223 35.801-29.441 57.289-43.402 22.309-59.617 67.336-57.688 110.38-9.0039 11.699-40.961 60.863-2.2109 126.96 18.84 32.129-5.9219 60.078-6.9648 61.234l0.003906-0.003906c-2.3516 2.5586-2.9648 6.2617-1.5703 9.4414 1.3945 3.1758 4.5391 5.2305 8.0117 5.2305 0.98047 0.003906 1.9531-0.16406 2.8789-0.48828 17.328-6.3008 31.719-18.773 40.414-35.027 8.6953-16.258 11.086-35.152 6.7109-53.059-0.94141-4.7383-5.5508-7.8164-10.289-6.8711-4.7344 0.94141-7.8125 5.5508-6.8672 10.289 4.2266 16.699 0.78516 34.418-9.3906 48.32 3.6133-16.391 0.80469-33.539-7.8438-47.922-23.496-40.07-17.414-71.895-9.1484-90.562 0.089844 0.39844 0.15234 0.8125 0.24609 1.207 10.578 44.672 38.656 74.289 70.18 74.289 0.49609 0 1-0.007812 1.5039-0.015625h-0.003906c3.582-0.10938 6.7344-2.3945 7.957-5.7617 1.2227-3.3672 0.27344-7.1406-2.4023-9.5234-8.3516-8.5195-14.199-19.172-16.902-30.793-2.7031-11.617-2.1562-23.758 1.582-35.09 1.3945-4.625-1.2227-9.5039-5.8477-10.902-4.6211-1.3984-9.5039 1.2188-10.902 5.8438-6.7227 20.637-5.0273 43.09 4.7109 62.48-16.105-10.449-27.617-32.48-32.848-54.559-9.3125-39.289-1.918-86.629 32.965-112.36-2.4727 22.988-0.054688 46.238 7.1016 68.227 9.2969 26.234 25.496 41.691 45.621 43.543 0.27344 0.027344 0.53906 0.035156 0.80469 0.035156 2.6406 0 5.1406-1.1953 6.8008-3.2539 1.6602-2.0547 2.3047-4.75 1.75-7.332-5.6484-26.309-12.996-98.805 20.379-118.06h0.003906c1.2656-0.73047 2.3281-1.7695 3.0898-3.0156l65.941-107.82c0.53906-0.875 1.5586-1.3281 2.5703-1.1445 1.0078 0.1875 1.8008 0.97266 1.9961 1.9805l16.098 83.852 0.007812 0.023438c0.44141 2.2656 1.7617 4.2617 3.6719 5.5547l0.035157 0.039062c0-0.003906 230.75 155.04 239.71 161.06 8.5039 5.043 14.07 13.859 14.973 23.703 0.94141 9.7305-2.9727 19.301-10.461 25.582-25.414 21.449-50.68 30.812-75.008 27.926-23.801-4.1211-45.23-16.934-60.129-35.949-2.832-3.9141-8.3008-4.7969-12.219-1.9648s-4.7969 8.3047-1.9648 12.219c13.453 17.242 31.391 30.449 51.848 38.176-2.8828 3.6641-6.9414 6.2266-11.492 7.2539-4.5469 1.0273-9.3125 0.45703-13.492-1.6172l-57.414-28.848-2.9922 0.625c-30.992 6.4531-55.336 2.6836-72.453-11.176-27.918-22.609-28.395-65.445-28.395-65.871l0.003906-0.003906c-0.019531-4.8242-3.9297-8.7227-8.75-8.7266h-0.019531c-4.8242 0.003906-8.7305 3.918-8.7305 8.7422 0 2.0859 0.39453 51.414 34.777 79.363 16.293 12.668 36.566 19.109 57.184 18.164v105.18c0 4.832 3.918 8.75 8.75 8.75s8.75-3.918 8.75-8.75v-106.5c3.1094-0.41797 6.2109-0.82812 9.4336-1.4453l51.996 26.129v0.003906c8.2656 4.1445 17.762 5.1211 26.699 2.7383s16.688-7.957 21.793-15.668l2.5312-3.8125c0.67578 0.097656 1.3164 0.25391 1.9961 0.33594 3.6875 0.45312 7.4023 0.67969 11.117 0.67578 25.805 0 51.816-10.922 77.469-32.574 11.867-9.9336 18.074-25.074 16.602-40.477zm-376.26-176.67c-37.992 24.234-33.496 90.867-29.285 120.86h0.003906c-8.9531-7.1016-15.531-16.762-18.852-27.695-13.535-38.18-7.9219-100.91 21.781-129.87v0.003906c9.8633-9.9453 23.336-15.465 37.34-15.297 6.4766 0.054688 12.918 0.96875 19.16 2.7109zm219.69-149.25-16.992 60.984-17.527-12.336zm-46.762 167.81-48.961-32.902 19.719-27.789 38.586 27.16zm-19.121-74.957 21.242-29.941 22.664 15.953-10.457 37.531z"/>
  <path d="m381.68 309.24c-0.019531-1.7617 0.66406-3.4531 1.9023-4.707 1.2344-1.25 2.9219-1.9531 4.6836-1.9531 1.7578 0 3.4453 0.70312 4.6797 1.9531 1.2383 1.2539 1.9219 2.9453 1.9023 4.707 0 4.832 3.918 8.75 8.75 8.75s8.75-3.918 8.75-8.75c0.015625-6.3984-2.5117-12.543-7.0312-17.074s-10.652-7.0742-17.051-7.0742c-6.4023 0-12.535 2.543-17.055 7.0742s-7.0469 10.676-7.0312 17.074c0 4.832 3.918 8.75 8.75 8.75s8.75-3.918 8.75-8.75z"/>
  <path d="m215.03 486.21c-4.7539-0.84766-9.2969 2.3086-10.168 7.0586-1.4023 7.7852-2.7695 15.938-4.0508 24.438-0.34766 2.293 0.23047 4.6328 1.6094 6.5 1.375 1.8672 3.4375 3.1094 5.7344 3.457 0.43359 0.066406 0.875 0.10156 1.3125 0.10156 4.3242-0.003906 7.9961-3.168 8.6406-7.4414 1.2656-8.332 2.5938-16.312 3.9805-23.941v-0.003907c0.85547-4.7539-2.3008-9.3047-7.0586-10.168z"/>
  <path d="m245.35 377.21c-2.1562-0.86719-4.5625-0.83984-6.6992 0.070312-2.1328 0.91016-3.8203 2.6289-4.6836 4.7852-9.2422 24.957-16.629 50.562-22.105 76.605-0.51172 2.2656-0.10156 4.6406 1.1406 6.6016 1.2422 1.9648 3.2109 3.3516 5.4766 3.8594 2.2695 0.50781 4.6445 0.09375 6.6055-1.1484 1.9609-1.2461 3.3438-3.2188 3.8477-5.4844 5.3164-25.113 12.426-49.812 21.27-73.906 1.8008-4.4844-0.37109-9.5781-4.8516-11.383z"/>
  <path d="m557.46 385.35c0 4.832-3.918 8.75-8.75 8.75-4.832 0-8.75-3.918-8.75-8.75 0-4.832 3.918-8.75 8.75-8.75 4.832 0 8.75 3.918 8.75 8.75"/>
 </g>
</svg>
